<?xml version="1.0" encoding="utf-8"?>
<!-- Generator: Adobe Illustrator 21.1.0, SVG Export Plug-In . SVG Version: 6.00 Build 0)  -->
<svg version="1.1" id="Layer_1" xmlns="http://www.w3.org/2000/svg" xmlns:xlink="http://www.w3.org/1999/xlink" x="0px" y="0px"
	 width="500px" height="500px" viewBox="0 0 500 500" style="enable-background:new 0 0 500 500;" xml:space="preserve">
<style type="text/css">
	.st0{fill:#010101;}
</style>
<g>
	<path class="st0" d="M284.3,103.9l24.3-41.1c0,0-24.2-11.4-26,13.6c-0.7,9.9-6.9,13.8-12.6,13.8c-6.4,0-11.3-5.3-11.3-11.4
		c0-6.5,5.3-11.4,11.4-11.4c1.4,0,2.4,0.2,2.4,0.2c3.4-11-7.1-14.4-13.3-11c0,0,1.6-9.9-8.1-14.7c-10.4,4.5-8.1,14.7-8.1,14.7
		c-6.1-3.4-16.7,0-13.3,11c0,0,1-0.2,2.4-0.2c6.1,0,11.4,4.9,11.4,11.4c0,6.1-4.9,11.4-11.3,11.4c-5.7,0-11.9-3.9-12.6-13.8
		c-1.8-25-27.1-15.4-27.1-15.4l25.3,42.9H284.3z"/>
	<path class="st0" d="M436.9,241.5c38.1-4.6,37.7-35.5,37.7-35.5c-47.8,8.2-74.5-18.3-74.5-18.3s30,12.7,53.9,0
		c23.5-12.5,20.2-38.8,20.2-38.8c-55.4,18.1-75.3-1.5-75.3-1.5s22.4,4.7,41.2-6.6c25.9-15.5,14.5-38.6,14.5-38.6
		c-41.8,19.6-60.7,9.7-60.7,9.7s21.1-0.4,33-23.9c9.3-18.3-6.1-32.4-6.1-32.4c-21,31.1-54.5,26.6-77.2,39.7
		c-15.1,8.7-1.4,24.7-1.4,24.7c14.7-5.5,27.7,10.9,27.7,35.4c0,34.9-28.6,54.2-58.9,54.2c-30.8,0-44.4-13.4-44.4-45.1
		c0-13.2,3.2-18.4,13-18.4c9.8,0,13.6,7.1,13.6,7.1s5.9-8.4,5.9-20.1c0-15.2-10.8-18.9-23.4-18.9c-12.5,0-47.7,0-63,0
		c0,8.4,2.7,17.9,11.7,20.8c0,0-2.9,24.1-6.3,50.7c-2.2,17.2-15.7,23.9-30.6,23.9c-28.4,0-59-18-59-54.2c0-20.8,11.2-41.4,27.7-35.4
		c5.1-5.8,9.6-16.9-0.2-23.9c-17.1-12.2-58.1-8.9-78.4-40.4c0,0-15.3,14-6.1,32.4c11.8,23.5,33,23.9,33,23.9s-19,9.9-60.7-9.7
		c0,0-11.4,23,14.5,38.6c18.8,11.3,41.2,6.6,41.2,6.6s-20,19.6-75.3,1.5c0,0-3.2,26.3,20.2,38.8c23.9,12.7,53.9,0,53.9,0
		S71.7,214.2,23.8,206c0,0-0.4,30.9,37.7,35.5c30.2,3.7,55.2-17.6,55.2-17.6s-7.7,29.2-78.2,39c0,0,17.7,31,60.5,20
		c28.6-7.3,45.9-32.5,45.9-32.5s-11.7,37-71.8,59.4c0,0,18.7,21.1,58.8,4.5c33.8-14,47.9-48,47.9-48s-4.4,30.9-33.7,61.7
		c0,0,9.1,2.2,16.7-0.9c27.8-11.4,45.4-29.7,49.9-58.4c0,0,8.1,7.8,6.1,23.4c-2.8,21.5-38.6,45.6-38.6,45.6l4.9,7.3
		c-8.8,5.2-22.1,13-27.1,15.9c-10.4-6.4-23.4-14.2-26-15.8c-9.3-5.5-27.4-5.1-29.7,16.9c8.6-9.5,16-8.1,25.5-3.3
		c1.6,0.8,9.6,5.5,16.9,9.9c-4.8,2.7-8.1,4.7-8.6,5c-9.3,5.5-17.5,21.7,0.8,34.2c-4.3-12.1,0.5-17.9,9.2-24.1
		c0.8-0.6,5.4-3.4,11.7-7.1c3.8,2.4,9.1,6.1,10.1,6.8c8.5,6.4,13.1,12.4,8.4,24.3c18.6-11.9,10.9-28.4,1.8-34.2
		c-0.4-0.3-4.6-3.2-7.2-4.8c3.5-2.1,14.3-8.5,21.6-12.9l4.7,7.1l30.8-18.7c0.4,3.2,0.7,7.6,0.2,11.8c-2.8,22.7-15.3,43.5-43.5,62.3
		c0,0,4.2,15.1,22.8,15.1c14.2,0,23.7-15.9,29-29.7c-6.3,24.6-5.8,43.8,12.5,60.2c17.7-16,19-35.6,12.7-60.2
		c5.4,13.8,14.8,29.7,29,29.7c18.6,0,22.8-15.1,22.8-15.1c-28.1-18.8-40.7-39.5-43.5-62.3c-0.5-4.2-0.2-8.6,0.2-11.8l30.7,18.7
		l4.7-7.1c7.4,4.4,18.2,10.8,21.7,12.9c-2.6,1.6-6.8,4.5-7.2,4.8c-9.1,5.8-16.8,22.2,1.8,34.2c-4.7-12-0.1-18,8.4-24.3
		c1-0.7,6.3-4.4,10.1-6.8c6.2,3.7,10.8,6.5,11.6,7.1c8.7,6.1,13.5,12,9.2,24.1c18.3-12.5,10.1-28.7,0.8-34.2c-0.5-0.3-3.9-2.2-8.6-5
		c7.2-4.4,15.3-9.1,16.9-9.9c9.5-4.8,16.9-6.2,25.5,3.3c-2.3-22-20.5-22.4-29.7-16.9c-2.6,1.6-15.6,9.4-26,15.8
		c-5-2.9-18.4-10.8-27.2-15.9l4.9-7.2c0,0-35.4-24.2-38.5-45.6c-2.3-15.9,6.1-23.4,6.1-23.4c3.3,26.1,22,48.3,50.2,57.9
		c7.8,2.7,16.4,1.4,16.4,1.4c-29.3-30.8-33.7-61.7-33.7-61.7s14.1,34,47.9,48c40.1,16.6,58.8-4.5,58.8-4.5
		c-60.1-22.4-71.8-59.4-71.8-59.4s17.3,25.2,45.9,32.5c42.9,11,60.5-20,60.5-20c-70.5-9.8-78.2-39-78.2-39S406.7,245.2,436.9,241.5z
		"/>
</g>
</svg>
